<?xml version="1.0" encoding="UTF-8" standalone="no"?>
<!-- Created with Inkscape (http://www.inkscape.org/) -->

<svg
   width="600mm"
   height="900mm"
   viewBox="0 0 600 900"
   version="1.1"
   id="svg5"
   inkscape:version="1.1.2 (1:1.1+202202050950+0a00cf5339)"
   sodipodi:docname="beefriends.svg"
   xmlns:inkscape="http://www.inkscape.org/namespaces/inkscape"
   xmlns:sodipodi="http://sodipodi.sourceforge.net/DTD/sodipodi-0.dtd"
   xmlns="http://www.w3.org/2000/svg"
   xmlns:svg="http://www.w3.org/2000/svg">
  <sodipodi:namedview
     id="namedview7"
     pagecolor="#ffffff"
     bordercolor="#666666"
     borderopacity="1.0"
     inkscape:pageshadow="2"
     inkscape:pageopacity="0.0"
     inkscape:pagecheckerboard="0"
     inkscape:document-units="mm"
     showgrid="false"
     width="600mm"
     inkscape:zoom="0.11313708"
     inkscape:cx="2399.7436"
     inkscape:cy="2704.6834"
     inkscape:window-width="1920"
     inkscape:window-height="949"
     inkscape:window-x="1920"
     inkscape:window-y="27"
     inkscape:window-maximized="1"
     inkscape:current-layer="layer1" />
  <defs
     id="defs2" />
  <g
     inkscape:label="Capa 1"
     inkscape:groupmode="layer"
     id="layer1">
    <g
       id="g1567">
      <path
         style="fill:#572345;fill-opacity:1;stroke:none;stroke-width:0.319731px;stroke-linecap:butt;stroke-linejoin:miter;stroke-opacity:1"
         d="M 239.58775,91.312018 301.23899,20.798126 362.78862,93.545784 301.7445,125.32421 Z"
         id="path24411"
         sodipodi:nodetypes="ccccc" />
      <g
         id="g31141"
         transform="translate(-626.38044,-63.089853)">
        <g
           id="g30304"
           transform="translate(3.3297538,-1.0339006)">
          <ellipse
             style="fill:#ffd100;fill-opacity:1;stroke-width:1.87127;stroke-linecap:square;stroke-linejoin:round"
             id="path880"
             cx="922.75085"
             cy="640.04956"
             rx="139.7603"
             ry="215.951" />
          <path
             style="fill:#000000;fill-opacity:1;stroke:#000000;stroke-width:0.276459px;stroke-linecap:butt;stroke-linejoin:miter;stroke-opacity:1"
             d="m 803.88301,526.60159 237.69979,-0.08 6.0845,16.54237 4.1791,14.26321 3.1981,13.42988 1.773,8.97731 -1.834,1.84452 c -8.1676,8.28992 -16.1183,13.96979 -24.3843,20.85155 -30.0824,25.0448 -62.14933,42.00168 -104.24518,41.68446 -44.64246,0.91382 -99.06118,-24.95489 -136.40837,-70.69224 l 2.67993,-11.70372 3.65242,-13.30361 3.34546,-10.37003 z"
             id="path3609"
             sodipodi:nodetypes="cccccccscccccc" />
          <path
             style="fill:#000000;fill-opacity:1;stroke:#000000;stroke-width:0.276214px;stroke-linecap:butt;stroke-linejoin:miter;stroke-opacity:1"
             d="m 871.34076,438.81955 -48.09626,-69.86604 12.32337,-7.63514 48.80211,71.34642 z"
             id="path4765" />
          <path
             style="fill:#000000;fill-opacity:1;stroke:#000000;stroke-width:0.276214px;stroke-linecap:butt;stroke-linejoin:miter;stroke-opacity:1"
             d="m 1012.023,363.74526 -48.09592,69.86603 12.32334,7.63515 48.80188,-71.34643 z"
             id="path4765-7" />
          <path
             style="fill:#000000;fill-opacity:1;stroke:#000000;stroke-width:0.297722px;stroke-linecap:butt;stroke-linejoin:miter;stroke-opacity:1"
             d="m 787.54276,693.73134 c 289.70954,0.0778 180.3194,0.15338 270.49514,0.23121 l -1.7019,8.62153 -1.1529,5.8838 -1.5811,6.84411 -1.3177,5.23013 -1.0826,4.04544 -1.4052,5.03669 -2.1808,6.94328 -2.5735,7.60884 -3.4881,9.31761 -2.2341,5.3161 -1.2156,2.79451 -230.18808,1.2564 -3.07115,-7.09985 -2.99938,-7.8191 -4.00956,-11.44273 -3.06149,-9.85781 -2.7766,-10.79039 -1.79116,-8.03075 -1.36883,-6.74748 z"
             id="path12256"
             sodipodi:nodetypes="cccccccccccccccccccccc" />
        </g>
        <path
           style="fill:#572345;fill-opacity:1;stroke:none;stroke-width:0.223091;stroke-linecap:butt;stroke-linejoin:miter;stroke-miterlimit:4;stroke-dasharray:none;stroke-opacity:1;paint-order:stroke fill markers"
           d="m 1141.4628,931.46675 52.7722,0.54063 2.5381,-543.77604 -70.4723,-59.90723 3.1285,603.17418 z"
           id="path13246-3"
           sodipodi:nodetypes="cccccc" />
        <path
           style="fill:#572345;fill-opacity:1;stroke:none;stroke-width:0.222831px;stroke-linecap:butt;stroke-linejoin:miter;stroke-opacity:1"
           d="m 671.34863,931.16842 52.76916,0.54017 1.98551,-602.99414 -69.91589,59.46711 3.12838,543.01837 z"
           id="path13246-3-6"
           sodipodi:nodetypes="cccccc" />
        <path
           style="fill:#572345;fill-opacity:1;stroke:none;stroke-width:0.165102px;stroke-linecap:butt;stroke-linejoin:miter;stroke-opacity:1"
           d="M 665.10136,396.26433 705.6971,430.32955 929.87971,186.75742 878.38548,140.14846 656.18741,388.18156 Z"
           id="path13246-3-6-2"
           sodipodi:nodetypes="cccccc" />
        <path
           style="fill:#572345;fill-opacity:1;stroke:none;stroke-width:0.165102px;stroke-linecap:butt;stroke-linejoin:miter;stroke-opacity:1"
           d="m 936.0949,179.56861 39.39084,-38.65508 221.28736,247.26883 -48.3646,47.11731 -220.28356,-246.88561 z"
           id="path13246-3-6-2-9"
           sodipodi:nodetypes="cccccc" />
        <rect
           style="fill:#572345;fill-opacity:1;stroke:none;stroke-width:0.223;stroke-linecap:square;stroke-linejoin:round;stroke-miterlimit:4;stroke-dasharray:none;paint-order:stroke fill markers"
           id="rect27994"
           width="95.785309"
           height="35.946564"
           x="722.53027"
           y="895.76208"
           ry="0.65581214" />
        <rect
           style="fill:#572345;fill-opacity:1;stroke:none;stroke-width:0.223;stroke-linecap:square;stroke-linejoin:round;stroke-miterlimit:4;stroke-dasharray:none;paint-order:stroke fill markers"
           id="rect27994-1"
           width="95.785309"
           height="35.946564"
           x="1035.2314"
           y="895.58783"
           ry="0.65581214" />
      </g>
    </g>
  </g>
</svg>
